<svg width="258" height="408" viewBox="0 0 258 408" fill="none" xmlns="http://www.w3.org/2000/svg">
<path d="M250 17.5223V29.0289V40.5512V52.0577V63.58V75.0866V86.6089V98.1155V109.638V121.16V132.667V144.189V155.696V167.218V178.724V190.247V201.753V213.276V224.782V236.304V247.827V259.333V270.856V282.362V293.885V305.391V316.913V328.42V339.942V351.465V362.971V374.478V386H256V374.478V362.971V351.465V339.942V328.42V316.913V305.391V293.885V282.362V270.856V259.333V247.827V236.304V224.782V213.276V201.753V190.247V178.724V167.218V155.696V144.189V132.667V121.16V109.638V98.1155V86.6089V75.0866V63.58V52.0577V40.5512V29.0289V17.5223V6H250V17.5223Z" fill="#3F3F3F"/>
<path d="M6 362.971V351.465V339.942V328.42V316.913V305.391V293.885V282.362V270.856V259.333V247.827V236.304V224.782V213.276V201.753V190.247V178.724V167.218V155.696V144.189V132.667V121.16V109.638V98.1155V86.6089V75.0866V63.58V52.0577V40.5512V29.0289V17.5223V6H0V17.5223V29.0289V40.5512V52.0577V63.58V75.0866V86.6089V98.1155V109.638V121.16V132.667V144.189V155.696V167.218V178.724V190.247V201.753V213.276V224.782V236.304V247.827V259.333V270.856V282.362V293.885V305.391V316.913V328.42V339.942V351.465V362.971V374.478V386H6V374.478V362.971Z" fill="#3F3F3F"/>
<path d="M18.7303 6H20.6808H33.4285H46.1587H58.9064H71.6367H84.3844H97.1147H109.862H122.593H135.34H148.088H160.818H173.566H186.296H199.044H211.774H224.522H237.252H250V0H237.252H224.522H211.774H199.044H186.296H173.566H160.818H148.088H135.34H122.593H109.862H97.1147H84.3844H71.6367H58.9064H46.1587H33.4285H20.6808H18.7303H7.95047H6V6H7.95047H18.7303Z" fill="#3F3F3F"/>
<path d="M91.7416 386H79.5H67.2416H55H42.7416H30.5H18.2416H6V392H18.2416H30.5H42.7416H55H67.2416H79.5H91.7416H104V386H91.7416Z" fill="#3F3F3F"/>
<path d="M120 392H104V400H120V392Z" fill="#3F3F3F"/>
<path d="M136 400H120V408H136V400Z" fill="#3F3F3F"/>
<path d="M152 392H136V400H152V392Z" fill="#3F3F3F"/>
<path d="M225.5 386H213.242H201H188.742H176.5H164.242H152V392H164.242H176.5H188.742H201H213.242H225.5H237.742H250V386H237.742H225.5Z" fill="#3F3F3F"/>
</svg>
