<svg width="119" height="34" viewBox="0 0 119 34" fill="none" xmlns="http://www.w3.org/2000/svg">
<path d="M19.4823 24.4273C19.9715 24.3432 20.4268 24.2767 20.8753 24.1856C21.8534 24.0034 22.7958 23.6567 23.6648 23.1594C24.822 22.4881 25.7231 21.4308 26.2199 20.1613C26.9034 18.4313 27.1024 16.5383 26.7941 14.6975C26.6072 13.6083 26.1375 12.5916 25.435 11.7555L25.2549 11.5278C25.7257 10.0726 25.6677 8.49067 25.0918 7.07621C24.7668 6.98693 24.4247 6.98693 24.0997 7.07621C23.1505 7.29287 22.2455 7.6793 21.4257 8.218C21.2049 8.3546 20.9807 8.4912 20.77 8.6418C20.7122 8.68982 20.6438 8.72231 20.5709 8.73637C20.498 8.75043 20.4228 8.74561 20.3521 8.72235C18.8578 8.3234 17.3139 8.15811 15.772 8.23201C14.7257 8.26919 13.6865 8.42542 12.6734 8.69785C12.5731 8.73026 12.4669 8.73828 12.3632 8.72126C12.2594 8.70425 12.1609 8.66266 12.0754 8.59978C11.3415 8.06889 10.5415 7.64242 9.697 7.33189C9.26468 7.19829 8.8243 7.09416 8.37871 7.02017C8.19912 7.00093 8.01807 7.00093 7.83848 7.02017C7.47175 7.92494 7.30352 8.90206 7.34582 9.88166C7.35748 10.3706 7.44582 10.8543 7.60744 11.3142C7.67879 11.5033 7.58366 11.6084 7.48513 11.7275C6.86623 12.4731 6.42109 13.3549 6.18382 14.3052C6.01216 15.029 5.94461 15.7748 5.98336 16.5188C6.00715 17.2859 6.09927 18.0491 6.25857 18.7989C6.83277 21.3592 8.34473 23.0263 10.7605 23.8354C11.5355 24.0885 12.3318 24.2667 13.1388 24.3678C13.2027 24.3734 13.2663 24.3827 13.3291 24.3958C13.3495 24.3958 13.3631 24.4203 13.4073 24.4553C12.8579 25.0654 12.5137 25.8415 12.4253 26.6689C11.5683 27.1015 10.5932 27.2178 9.66303 26.9981C9.72419 27.2818 9.7004 27.3483 9.54751 27.4184C9.45345 27.4458 9.3532 27.44 9.2627 27.4019C9.1722 27.3638 9.09665 27.2957 9.04805 27.2082C8.98689 27.0716 9.02087 27.0191 9.28929 26.858C8.57179 26.485 7.97983 25.8979 7.59045 25.1733C7.37021 24.7819 7.07649 24.4397 6.72646 24.1667C6.37643 23.8937 5.97711 23.6953 5.55185 23.5832C5.29317 23.4982 5.01653 23.4897 4.7534 23.5587C4.62122 23.5894 4.50211 23.6631 4.41364 23.7688C4.3253 23.923 4.4612 24.063 4.57333 24.1681C4.70259 24.2999 4.84494 24.4173 4.99803 24.5184C5.59259 24.9074 6.07855 25.4494 6.40806 26.091C6.53942 26.3317 6.65299 26.5822 6.74783 26.8405C6.96243 27.42 7.31959 27.9321 7.78423 28.3263C8.24888 28.7206 8.80501 28.9834 9.39801 29.0891C10.2894 29.2719 11.2077 29.2636 12.0958 29.0645L12.3302 29.0295C12.3302 29.1311 12.3506 29.2186 12.354 29.3062L12.3744 32.0381C12.3762 32.1378 12.3693 32.2374 12.354 32.3358C12.3387 32.4988 12.2684 32.6512 12.1554 32.7664C12.0425 32.8816 11.8939 32.9523 11.7356 32.9663C11.5068 32.9931 11.2751 32.9693 11.0561 32.8962C8.27958 31.9278 5.81243 30.1959 3.92097 27.8877C2.02918 25.6416 0.767537 22.9061 0.27188 19.9757C-0.194349 17.3689 -0.0595384 14.6856 0.665432 12.1424C1.3904 9.59918 2.68523 7.26728 4.44541 5.33487C6.20559 3.40247 8.38182 1.9237 10.7985 1.0179C13.2151 0.112106 15.8045 -0.195341 18.3577 0.120365C22.0452 0.574216 25.4745 2.30371 28.0852 5.02633C30.696 7.74894 32.334 11.3037 32.7315 15.11C33.1291 18.9163 32.2627 22.749 30.274 25.9821C28.2853 29.2152 25.2918 31.6576 21.7825 32.9102C21.6912 32.9439 21.5967 32.9674 21.5005 32.9803C21.3714 33.0184 21.2352 33.0227 21.1041 32.9927C20.973 32.9627 20.8513 32.8994 20.75 32.8086C20.6487 32.7177 20.571 32.6022 20.5241 32.4726C20.4771 32.3429 20.4624 32.2032 20.4812 32.0661C20.4812 30.5636 20.4812 29.0645 20.4982 27.5655C20.5307 26.7728 20.3707 25.9842 20.0327 25.2714C19.9107 25.0506 19.7757 24.8377 19.6284 24.634C19.6182 24.5919 19.5536 24.5184 19.4823 24.4273Z" fill="#6FB36E"/>
<path d="M53.5774 22.8081V18.8181H51.3185C51.2498 18.8228 51.1808 18.8228 51.112 18.8181C51.0702 18.8181 51.0289 18.8094 50.9904 18.7925C50.952 18.7755 50.9173 18.7507 50.8885 18.7195C50.8597 18.6883 50.8373 18.6514 50.8227 18.611C50.8082 18.5706 50.8018 18.5276 50.8039 18.4845C50.8039 18.4432 50.8039 18.4051 50.8039 18.3638C50.8039 17.3854 50.8039 16.4069 50.8039 15.4285C50.8039 15.0409 50.8717 14.9647 51.2415 14.9647H57.3495C57.707 14.9647 57.7932 15.0568 57.7932 15.4316C57.7932 18.6974 57.7932 21.9641 57.7932 25.232C57.8006 25.3264 57.7805 25.421 57.7355 25.5036C57.6905 25.5862 57.6226 25.6531 57.5405 25.6958C56.5499 26.2919 55.4649 26.7027 54.3355 26.9093C52.3872 27.2947 50.3793 27.2164 48.4648 26.6806C47.3834 26.3939 46.3857 25.8408 45.5574 25.0689C44.7292 24.297 44.0951 23.3293 43.7097 22.249C43.3126 21.2068 43.0564 20.1133 42.9485 18.9992C42.7682 17.2939 42.7868 15.5725 43.004 13.8718C43.1512 12.5504 43.5072 11.2626 44.0579 10.0597C44.5139 9.05496 45.1928 8.17487 46.0397 7.49057C46.8866 6.80626 47.8778 6.33694 48.9332 6.12052C51.2499 5.69092 53.6303 5.79944 55.901 6.4382C56.1982 6.53851 56.4877 6.66169 56.767 6.80671C57.0197 6.93378 57.0444 7.0132 56.9827 7.28958C56.7609 8.2712 56.5359 9.24965 56.3109 10.2313C56.24 10.5489 56.1229 10.6188 55.8271 10.514C54.4349 10.0561 52.9692 9.88342 51.5127 10.0057C50.9251 10.0323 50.3465 10.1634 49.8023 10.3933C49.2927 10.6265 48.837 10.9686 48.4651 11.3968C48.0932 11.825 47.8137 12.3297 47.6451 12.8775C47.3711 13.6667 47.2102 14.4929 47.1674 15.33C47.0588 16.6582 47.1283 17.9955 47.3739 19.3041C47.4782 19.8379 47.6459 20.3565 47.8731 20.848C48.133 21.4574 48.5511 21.981 49.0813 22.361C49.6115 22.7411 50.2332 22.9628 50.8778 23.0019C51.7066 23.0798 52.5418 23.0446 53.3617 22.8971C53.4109 22.8914 53.4594 22.8807 53.5065 22.8653C53.5324 22.8494 53.5562 22.8302 53.5774 22.8081V22.8081Z" fill="#6FB36E"/>
<path d="M80.6628 18.1194V26.1788C80.6628 26.6808 80.6105 26.7348 80.1297 26.7348H77.0172C76.9391 26.7395 76.8609 26.7395 76.7829 26.7348C76.7012 26.7348 76.6228 26.7013 76.565 26.6417C76.5072 26.5822 76.4748 26.5014 76.4748 26.4171C76.4748 26.3345 76.4748 26.2551 76.4748 26.1757V7.21035C76.4748 6.68618 76.5272 6.63535 77.0233 6.63535H80.1359C80.223 6.62744 80.3107 6.62744 80.3978 6.63535C80.4672 6.63993 80.5325 6.6706 80.5813 6.72156C80.6302 6.77251 80.6592 6.84019 80.6628 6.91173C80.6628 7.01339 80.6628 7.11505 80.6628 7.22941V14.1325H86.2809V7.25164C86.2809 7.16905 86.2809 7.08963 86.2809 7.00704C86.2809 6.73383 86.3887 6.629 86.6599 6.61947C86.9311 6.60994 87.2763 6.61947 87.569 6.61947C88.3703 6.61947 89.1715 6.61947 89.9759 6.61947C90.4104 6.61947 90.4905 6.69889 90.4905 7.14682V26.0804C90.4905 26.6903 90.4443 26.738 89.8742 26.738H86.8232C86.7442 26.7427 86.665 26.7427 86.5859 26.738C86.5042 26.738 86.4258 26.7045 86.368 26.6449C86.3102 26.5853 86.2778 26.5045 86.2778 26.4203C86.2731 26.3293 86.2731 26.2381 86.2778 26.1471C86.2778 23.6057 86.2778 21.0558 86.2778 18.4974V18.1448C86.059 18.0749 81.1035 18.0527 80.6628 18.1194Z" fill="#6FB36E"/>
<path d="M101.474 25.8165C101.384 25.861 101.314 25.8896 101.249 25.9277C100.242 26.5586 99.1133 26.9524 97.9421 27.0809C96.7731 27.2391 95.5843 27.0972 94.4813 26.6679C93.9981 26.4668 93.5673 26.1517 93.2237 25.7478C92.8801 25.344 92.6332 24.8626 92.5028 24.3425C92.3275 23.7117 92.2434 23.0576 92.2532 22.4015C92.2532 19.4365 92.2532 16.4715 92.2532 13.5066C92.2532 13.1095 92.3333 13.0269 92.7186 13.0269H96.0037C96.392 13.0269 96.4814 13.119 96.4814 13.5288C96.4814 16.2502 96.4814 18.9717 96.4814 21.6931C96.4801 21.9852 96.5069 22.2768 96.5615 22.5635C96.6014 22.8207 96.7239 23.0567 96.9095 23.2335C97.095 23.4104 97.3328 23.5179 97.5846 23.5388C98.475 23.6655 99.3807 23.475 100.152 22.9987C100.205 22.9672 100.247 22.9201 100.274 22.8636C100.301 22.807 100.311 22.7435 100.303 22.6811C100.303 21.5819 100.303 20.4827 100.303 19.3836V13.6336C100.303 13.5415 100.303 13.4494 100.303 13.3604C100.303 13.2762 100.335 13.1954 100.393 13.1358C100.451 13.0762 100.529 13.0427 100.611 13.0427H104.047C104.134 13.0407 104.22 13.0569 104.3 13.0904C104.457 13.1666 104.466 13.3191 104.466 13.478C104.466 14.4882 104.466 15.4952 104.466 16.5022V26.3502C104.466 26.6298 104.364 26.7378 104.093 26.741C103.382 26.741 102.668 26.741 101.951 26.741C101.693 26.741 101.606 26.6616 101.557 26.3947C101.529 26.2136 101.508 26.0262 101.474 25.8165Z" fill="#6FB36E"/>
<path d="M71.7043 13.0078H72.0648C72.7983 13.0078 73.5317 13.0078 74.2652 13.0078C74.6134 13.0078 74.6966 13.0935 74.6966 13.4525C74.6966 14.3611 74.6966 15.2664 74.6966 16.175C74.6966 16.5308 74.6073 16.6229 74.2621 16.6261H71.7227C71.7227 16.7405 71.7012 16.8262 71.7012 16.9152C71.7012 18.6465 71.7012 20.381 71.7012 22.1156C71.6758 22.4478 71.7762 22.7773 71.9813 23.0349C72.1864 23.2925 72.4803 23.4583 72.8013 23.4975C73.2549 23.5736 73.7166 23.5833 74.1727 23.526C74.2128 23.526 74.2498 23.526 74.2898 23.507C74.6165 23.4752 74.7459 23.5896 74.749 23.9263C74.749 24.4505 74.749 24.9747 74.749 25.5147C74.749 25.7943 74.749 26.077 74.749 26.3597C74.749 26.6425 74.6874 26.7123 74.4408 26.7886C73.168 27.1781 71.8182 27.2154 70.527 26.8966C68.9029 26.4963 67.9784 25.4099 67.6887 23.7389C67.6096 23.2625 67.5704 22.78 67.5716 22.2966C67.5716 20.5431 67.5716 18.8022 67.5716 17.0359V16.661L67.2635 16.642H65.8335C65.4576 16.642 65.3774 16.5626 65.3774 16.1877C65.3774 15.4825 65.3774 14.7762 65.3774 14.0688C65.3774 13.7511 65.4267 13.6749 65.7442 13.5923L67.2542 13.2174L67.5624 13.1285V12.7949C67.5624 11.6979 67.5624 10.5998 67.5624 9.5006C67.5624 9.15115 67.5932 9.11621 67.9291 9.11621H71.319C71.6549 9.11621 71.6858 9.1448 71.6858 9.5006C71.6858 10.5458 71.6858 11.5941 71.6858 12.6424L71.7043 13.0078Z" fill="#6FB36E"/>
<path d="M64.0461 19.8347V25.9754C64.0486 26.1058 64.0435 26.2363 64.0307 26.3661C64.0315 26.4119 64.0235 26.4573 64.0072 26.4999C63.9909 26.5424 63.9665 26.5812 63.9356 26.614C63.9046 26.6468 63.8677 26.6729 63.8269 26.6909C63.7861 26.7089 63.7422 26.7183 63.6978 26.7188C63.6096 26.7251 63.5211 26.7251 63.4328 26.7188H60.5298C59.9412 26.7188 59.8395 26.6171 59.8395 26.0199V13.6019C59.8395 13.551 59.8395 13.5002 59.8395 13.4494C59.8395 13.1126 59.9505 13.011 60.2894 13.0078C60.801 13.0078 61.3095 13.0078 61.8303 13.0078C62.4158 13.0078 63.0045 13.0078 63.59 13.0078C63.9814 13.0078 64.0522 13.0809 64.0553 13.4875V19.841L64.0461 19.8347Z" fill="#6FB36E"/>
<path d="M61.9814 7.07326C62.4476 7.07139 62.9038 7.21243 63.2921 7.47847C63.6804 7.74451 63.9832 8.12354 64.162 8.56739C64.3409 9.01124 64.3877 9.49988 64.2965 9.97121C64.2053 10.4425 63.9802 10.8753 63.6499 11.2144C63.3196 11.5536 62.8989 11.7839 62.4413 11.876C61.9837 11.9682 61.5099 11.918 61.08 11.7319C60.6502 11.5458 60.2837 11.2322 60.0271 10.8309C59.7706 10.4295 59.6356 9.95867 59.6392 9.47807C59.6409 8.83914 59.8884 8.227 60.3276 7.7761C60.7667 7.32521 61.3615 7.07242 61.9814 7.07326V7.07326Z" fill="#6FB36E"/>
<path d="M118.92 17.8744C118.852 17.0297 118.66 16.2005 118.349 15.4156C117.758 13.9829 116.756 13.0362 115.268 12.7281C113.767 12.4198 112.21 12.6437 110.848 13.3634L110.54 13.5159V7.19731C110.54 7.12742 110.54 7.05754 110.54 6.98765C110.54 6.73033 110.429 6.63185 110.174 6.61914C110.115 6.61914 110.056 6.61914 109.998 6.61914H106.916C106.374 6.61914 106.34 6.65091 106.34 7.22273V26.3056C106.34 26.6391 106.435 26.7345 106.765 26.7345H108.993C109.317 26.7345 109.409 26.6519 109.465 26.3246C109.499 26.1309 109.526 25.9339 109.56 25.7084L109.776 25.8513C110.007 26.0006 110.232 26.169 110.473 26.2961C111.939 27.0721 113.617 27.3139 115.234 26.9822C115.895 26.8711 116.517 26.5849 117.039 26.1517C117.561 25.7185 117.964 25.153 118.211 24.5107C118.507 23.8007 118.708 23.0527 118.809 22.287C119.019 20.8262 119.056 19.3445 118.92 17.8744V17.8744ZM114.694 21.7819C114.653 22.019 114.594 22.2526 114.519 22.4808C114.442 22.7606 114.286 23.0102 114.07 23.1972C113.854 23.3842 113.588 23.4998 113.308 23.5291C112.401 23.6636 111.476 23.5048 110.66 23.0748C110.598 23.0511 110.545 23.0073 110.509 22.9501C110.473 22.8929 110.456 22.8252 110.46 22.7571C110.46 20.813 110.46 18.8688 110.46 16.9214C110.46 16.8833 110.46 16.842 110.46 16.788C111.25 16.2913 112.179 16.0821 113.098 16.1939C113.402 16.2349 113.688 16.3608 113.928 16.558C114.167 16.7551 114.349 17.0159 114.454 17.3121C114.652 17.785 114.764 18.2909 114.787 18.8052C114.865 19.7979 114.834 20.7964 114.694 21.7819V21.7819Z" fill="#6FB36E"/>
</svg>
