<svg width="213" height="124" viewBox="0 0 213 124" fill="none" xmlns="http://www.w3.org/2000/svg">
<path d="M0 0H213V124H0V0Z" fill="#3D3D3D"/>
<g clip-path="url(#clip0_257_1134)">
<path d="M73.6661 75.8195H52V80.2688H73.6661V75.8195Z" fill="white"/>
<path d="M125.516 76.9852H103.85V79.2098H125.516V76.9852Z" fill="white"/>
<path d="M125.516 55.0702H103.85V57.2949H125.516V55.0702Z" fill="white"/>
<path d="M119.855 60.465H112.136V62.6896H119.855V60.465Z" fill="white"/>
<path d="M117.717 71.5059H110.069V73.7306H117.717V71.5059Z" fill="white"/>
<path d="M119.855 66.0266H112.136V68.2513H119.855V66.0266Z" fill="white"/>
<path d="M110.067 62.6896V66.0911H112.299V62.6896H110.067Z" fill="white"/>
<path d="M117.623 68.2535V71.655H119.855V68.2535H117.623Z" fill="white"/>
<path d="M114.88 58.5696V61.9711H117.112V58.5696H114.88Z" fill="white"/>
<path d="M114.88 72.0287V75.4302H117.112V72.0287H114.88Z" fill="white"/>
<path d="M123.773 31.1553H102.223V34.5634H123.773V31.1553Z" fill="white"/>
<path d="M126.817 11.0045H99.7417V15.4537H126.817V11.0045Z" fill="white"/>
<path d="M93.8749 104.099H77.8234V108.548H93.8749V104.099Z" fill="white"/>
<path d="M94.1807 80.2688H78.1292V84.7181H94.1807V80.2688Z" fill="white"/>
<path d="M106.118 86.4842L94.1077 80.2697L92.0517 84.2188L104.062 90.4332L106.118 86.4842Z" fill="white"/>
<path d="M73.6661 108.548H52V112.998H73.6661V108.548Z" fill="white"/>
<path d="M70.1157 92.0505H60.6004V96.4998H70.1157V92.0505Z" fill="white"/>
<path d="M98.3403 104.099H93.8772V112.998H98.3403V104.099Z" fill="white"/>
<path d="M118.107 95.3096H94.1807V99.7589H118.107V95.3096Z" fill="white"/>
<path d="M152 81.0118H147.537V94.2751H152V81.0118Z" fill="white"/>
<path fill-rule="evenodd" clip-rule="evenodd" d="M108.563 27.6759L104.698 30.1119L95.8834 13.4404L99.7484 11.0022L108.563 27.6759Z" fill="white"/>
<path fill-rule="evenodd" clip-rule="evenodd" d="M120.743 29.9406L117.014 27.2644L126.804 11L130.533 13.6762L120.743 29.9406Z" fill="white"/>
<path d="M121.285 85.9795H104.062V90.4288H121.285V85.9795Z" fill="white"/>
<path d="M121.285 98.0838V86.2175H116.822V98.0838H121.285Z" fill="white"/>
<path d="M112.412 108.548H93.8772V112.998H112.412V108.548Z" fill="white"/>
<path d="M147.549 80.9924L116.189 95.7237L118.091 99.7485L149.451 85.0173L147.549 80.9924Z" fill="white"/>
<path d="M150.103 90.3686L110.515 108.965L112.417 112.99L152.005 94.3935L150.103 90.3686Z" fill="white"/>
<path d="M78.1292 80.2688H73.6661V108.548H78.1292V80.2688Z" fill="white"/>
<path d="M89.0927 63.4616H84.6296V81.2788H89.0927V63.4616Z" fill="white"/>
<path d="M110.021 38.2962L106.499 35.5637L84.622 63.5895L88.1442 66.322L110.021 38.2962Z" fill="white"/>
<path d="M138.044 86.2175H142.507V63.4616H138.044V86.2175Z" fill="white"/>
<path d="M138.988 66.329L142.51 63.5965L120.633 35.5707L117.11 38.3032L138.988 66.329Z" fill="white"/>
<path d="M104.011 76.9852V57.2927H101.779V76.9852H104.011Z" fill="white"/>
<path d="M127.748 76.9874V57.2949H125.516V76.9874H127.748Z" fill="white"/>
</g>
<defs>
<clipPath id="clip0_257_1134">
<rect width="100" height="102" fill="white" transform="translate(52 11)"/>
</clipPath>
</defs>
</svg>
