<svg width="213" height="124" viewBox="0 0 213 124" fill="none" xmlns="http://www.w3.org/2000/svg">
<rect width="213" height="124" fill="#3D3D3D"/>
<path d="M88.5532 70.0439L107.328 88.8186L126.103 70.0263L137.024 80.9476L107.328 110.661L77.632 80.9651L88.5532 70.0439Z" fill="white"/>
<path d="M69.9205 73.26L59 62.3395L69.9205 51.419L80.841 62.3395L69.9205 73.26Z" fill="white"/>
<path d="M88.5532 54.6173L107.328 35.8425L126.103 54.6348L137.042 43.7136H137.024L107.328 14L77.6319 43.696L77.6144 43.7136L88.5532 54.6173Z" fill="white"/>
<path d="M144.732 73.2415L133.811 62.321L144.732 51.4005L155.652 62.321L144.732 73.2415Z" fill="white"/>
<path d="M118.407 62.3306L107.328 73.4272L99.1414 65.2231L98.1948 64.294L96.249 62.3481L96.2314 62.3306L96.249 62.3131L107.328 51.234L118.407 62.3306Z" fill="white"/>
</svg>
