<svg width="213" height="124" viewBox="0 0 213 124" fill="none" xmlns="http://www.w3.org/2000/svg">
<path d="M0 0H213V124H0V0Z" fill="#3D3D3D"/>
<rect x="121.073" y="40.3046" width="3.74891" height="26.4913" fill="white" stroke="white" stroke-width="0.5"/>
<rect x="111.733" y="48.0207" width="3.74891" height="18.7751" fill="white" stroke="white" stroke-width="0.5"/>
<rect x="102.392" y="52.0818" width="3.74891" height="14.714" fill="white" stroke="white" stroke-width="0.5"/>
<rect x="92.6453" y="42.7413" width="3.74891" height="24.0546" fill="white" stroke="white" stroke-width="0.5"/>
<rect x="83.7107" y="48.4269" width="3.74891" height="18.369" fill="white" stroke="white" stroke-width="0.5"/>
<rect x="59.75" y="16.75" width="94.3122" height="4.96725" fill="white" stroke="white" stroke-width="0.5"/>
<rect x="70.309" y="73.6059" width="73.6004" height="4.96725" fill="white" stroke="white" stroke-width="0.5"/>
<rect x="120.894" y="75.1418" width="36.846" height="4.96725" transform="rotate(61.7846 120.894 75.1418)" fill="white" stroke="white" stroke-width="0.5"/>
<rect x="97.6645" y="77.3695" width="36.846" height="4.96725" transform="rotate(116.607 97.6645 77.3695)" fill="white" stroke="white" stroke-width="0.5"/>
<rect x="95.4655" y="41.1391" width="25.5766" height="3.38893" transform="rotate(136.151 95.4655 41.1391)" fill="white" stroke="white" stroke-width="0.5"/>
<rect x="106.616" y="57.1444" width="22.6044" height="3.38893" transform="rotate(-134.872 106.616 57.1444)" fill="white" stroke="white" stroke-width="0.5"/>
<rect x="128.999" y="37.4774" width="29.7805" height="3.38893" transform="rotate(138.932 128.999 37.4774)" fill="white" stroke="white" stroke-width="0.5"/>
<rect x="109.796" y="76.0426" width="34.2074" height="4.96725" transform="rotate(90 109.796 76.0426)" fill="white" stroke="white" stroke-width="0.5"/>
<rect x="70.809" y="21.2172" width="52.8886" height="4.96725" transform="rotate(90 70.809 21.2172)" fill="white" stroke="white" stroke-width="0.5"/>
<rect x="148.377" y="21.2172" width="52.8886" height="4.96725" transform="rotate(90 148.377 21.2172)" fill="white" stroke="white" stroke-width="0.5"/>
<path d="M132.258 32.8259L132.449 32.3737L131.971 32.4848L121.386 34.9443L120.988 35.0366L121.251 35.3487L127.597 42.8956L127.859 43.2078L128.018 42.8323L132.258 32.8259Z" fill="white" stroke="white" stroke-width="0.5"/>
</svg>
