<svg width="38" height="38" viewBox="0 0 38 38" fill="none" xmlns="http://www.w3.org/2000/svg">
<path d="M19 38C29.4934 38 38 29.4934 38 19C38 8.50659 29.4934 0 19 0C8.50659 0 0 8.50659 0 19C0 29.4934 8.50659 38 19 38Z" fill="#3D3D3D"/>
<g clip-path="url(#clip0_303_1782)">
<path d="M30.1719 10.7412C29.8336 10.2458 29.2647 9.91846 28.6227 9.91846H8.37724C7.74874 9.91846 7.19299 10.2342 6.85211 10.7123L18.5371 20.4556L30.1719 10.7412Z" fill="white"/>
<path d="M6.50226 11.2251V25.0585C6.50226 26.0897 7.34601 26.9335 8.37726 26.9335H28.6228C29.654 26.9335 30.4978 26.0897 30.4978 25.0585V11.275L18.5371 21.2608L6.50226 11.2251Z" fill="white"/>
</g>
<defs>
<clipPath id="clip0_303_1782">
<rect width="24" height="24" fill="white" transform="translate(6.5 7)"/>
</clipPath>
</defs>
</svg>
