<svg width="38" height="38" viewBox="0 0 38 38" fill="none" xmlns="http://www.w3.org/2000/svg">
<path d="M19 38C29.4934 38 38 29.4934 38 19C38 8.50659 29.4934 0 19 0C8.50659 0 0 8.50659 0 19C0 29.4934 8.50659 38 19 38Z" fill="#3D3D3D"/>
<path d="M30.3523 20.529V28.3623H25.8108V21.054C25.8108 19.219 25.1551 17.9658 23.5107 17.9658C22.2558 17.9658 21.5104 18.8095 21.1812 19.6264C21.0616 19.9184 21.0308 20.3238 21.0308 20.7333V28.362H16.4889C16.4889 28.362 16.5499 15.9841 16.4889 14.7028H21.0311V16.6385C21.022 16.6537 21.0091 16.6686 21.001 16.6832H21.0311V16.6385C21.6347 15.7098 22.711 14.3821 25.1242 14.3821C28.1122 14.3821 30.3523 16.3343 30.3523 20.529ZM11.7377 8.11865C10.1841 8.11865 9.16772 9.13846 9.16772 10.4783C9.16772 11.7897 10.1547 12.839 11.6781 12.839H11.7076C13.2917 12.839 14.2766 11.7897 14.2766 10.4783C14.2464 9.13846 13.2916 8.11865 11.7377 8.11865ZM9.43766 28.3623H13.9778V14.7028H9.43766V28.3623Z" fill="white"/>
</svg>
