<svg width="38" height="38" viewBox="0 0 38 38" fill="none" xmlns="http://www.w3.org/2000/svg">
<g clip-path="url(#clip0_243_1197)">
<ellipse cx="19" cy="19.5" rx="18" ry="18.5" fill="white"/>
<path fill-rule="evenodd" clip-rule="evenodd" d="M18.9832 0.773926C29.2293 0.773926 37.5366 9.0812 37.5366 19.3304C37.5366 27.528 32.2205 34.4825 24.8467 36.9371C23.9186 37.107 23.5804 36.5341 23.5804 36.0414C23.5804 35.6021 23.5959 34.4347 23.6051 32.8865C28.7668 34.0077 29.8555 30.3988 29.8555 30.3988C30.6994 28.2561 31.9163 27.6855 31.9163 27.6855C33.601 26.5335 31.7889 26.5567 31.7889 26.5567C29.9265 26.6887 28.9467 28.4692 28.9467 28.4692C27.2913 31.3045 24.6035 30.4852 23.5465 30.0112C23.3774 28.812 22.8994 27.9944 22.3682 27.5303C26.4882 27.0624 30.8206 25.4695 30.8206 18.3598C30.8206 16.3345 30.0971 14.6776 28.9104 13.3804C29.1011 12.9109 29.7381 11.0246 28.7289 8.46968C28.7289 8.46968 27.1708 7.97089 23.626 10.3722C22.1458 9.96065 20.5583 9.75449 18.9809 9.74755C17.405 9.75449 15.8175 9.96065 14.335 10.3722C10.7925 7.97089 9.23746 8.46968 9.23746 8.46968C8.2252 11.0246 8.86221 12.9109 9.05292 13.3804C7.86385 14.6776 7.145 16.3345 7.145 18.3598C7.145 25.4881 11.4843 27.0562 15.6183 27.5157C14.9512 28.0886 14.3582 29.2205 14.3582 30.9524C14.3582 33.4324 14.3806 35.4338 14.3806 36.0414C14.3806 36.5387 14.047 37.1162 13.105 36.9348C5.73742 34.4756 0.425983 27.5257 0.425983 19.3304C0.425983 9.0812 8.73403 0.773926 18.9832 0.773926Z" fill="#3D3D3D"/>
</g>
<defs>
<clipPath id="clip0_243_1197">
<rect width="38" height="38" fill="white" transform="matrix(-1 0 0 1 38 0)"/>
</clipPath>
</defs>
</svg>
